<?xml version="1.0" encoding="utf-8"?>
<!-- Generator: Adobe Illustrator 24.0.1, SVG Export Plug-In . SVG Version: 6.00 Build 0)  -->
<svg version="1.1" id="Layer_1" xmlns="http://www.w3.org/2000/svg" xmlns:xlink="http://www.w3.org/1999/xlink" x="0px" y="0px"
	 viewBox="0 0 414 68" style="enable-background:new 0 0 414 68;" xml:space="preserve">
<style type="text/css">
	.st0{fill:#2DA3DC;}
	.st1{fill:#1B324A;}
</style>
<g>
	<g>
		<g>
			<g>
				<path class="st0" d="M9.2,57.8H3.1v10H1.7V56.5h8.8v11.2H9.2V57.8z"/>
				<path class="st0" d="M18.8,56.4c3.3,0,5.7,2.4,5.7,5.8c0,3.3-2.5,5.8-5.7,5.8S13,65.6,13,62.1C13,58.9,15.4,56.4,18.8,56.4z
					 M18.8,66.6c2.6,0,4.3-2,4.3-4.5c0-2.6-1.9-4.5-4.3-4.5c-2.4,0-4.3,1.9-4.3,4.5C14.5,64.7,16.4,66.6,18.8,66.6z"/>
				<path class="st0" d="M35.4,66.7c-0.8,0.8-2.1,1.3-3.5,1.3c-3.4,0-5.7-2.3-5.7-5.8c0-3.2,2.1-5.8,5.6-5.8c1.4,0,2.6,0.4,3.4,1.1
					l-0.6,1c-0.7-0.5-1.6-0.8-2.8-0.8c-2.4,0-4.2,1.8-4.2,4.5c0,2.7,1.8,4.5,4.4,4.5c1.1,0,2.1-0.4,2.9-1L35.4,66.7z"/>
				<path class="st0" d="M36,56.5h9.2v1.3h-3.9v10H40v-10H36V56.5z"/>
				<path class="st0" d="M49.4,56.5h1.2l4.8,11.3h-1.5l-1.4-3.4h-5.1l-1.4,3.4h-1.4L49.4,56.5z M47.9,63.1h4l-2-4.8L47.9,63.1z"/>
				<path class="st0" d="M57.3,56.5c0.6,0,2-0.1,3.1-0.1c2.7,0,3.6,1.2,3.6,2.8c0,1.4-0.9,2.2-1.9,2.6v0c1.4,0.2,2.3,1.1,2.3,2.7
					c0,2.3-1.7,3.3-4.1,3.3c-1,0-2.4,0-3-0.1V56.5z M58.7,57.8v3.6h1.8c1.2,0,2.2-0.7,2.2-1.9c0-1.2-0.8-1.8-2.3-1.8
					C59.8,57.8,59.1,57.8,58.7,57.8z M58.7,62.6v3.8c0.4,0,1.1,0.1,1.7,0.1c1.7,0,2.6-0.7,2.6-2.1c0-1.2-0.9-1.8-2.6-1.8H58.7z"/>
				<path class="st0" d="M67.3,56.5h1.4v11.2h-1.4V56.5z M70.5,61.8l5.3,6H74l-5.1-5.9l4.9-5.4h1.7L70.5,61.8z"/>
				<path class="st0" d="M77.7,67.8V56.5h1.4v9l6.8-9h1.2v11.2h-1.4v-9l-6.8,9H77.7z"/>
				<path class="st0" d="M95.5,61.4h5.6c-0.3-2.3-2-3.7-4.5-3.7c-1,0-2,0.3-2.8,0.9l-0.5-1c0.8-0.7,2.2-1.2,3.7-1.2
					c3.3,0,5.6,2.2,5.6,5.7c0,3.4-2.2,5.8-5.8,5.8c-1.5,0-2.8-0.4-3.7-1.2l0.6-1.1c0.8,0.6,1.9,1,3.1,1c2.4,0,4.2-1.5,4.4-4h-5.6
					V61.4z"/>
				<path class="st0" d="M111.5,57.8h-4.1l-0.2,2.1c-0.7,7.1-2.2,8.1-3.9,7.8l0-1.4c0.8,0.1,2.2-0.3,2.7-7.6l0.2-2.2h6.7v11.2h-1.4
					V57.8z"/>
				<path class="st0" d="M116.2,56.5h6.3v1.3h-5v3.6h4.5v1.3h-4.5v3.8h5.1v1.3h-6.5V56.5z"/>
				<path class="st0" d="M125.5,56.5h1.4v11.2h-1.4V56.5z M128.7,61.8l5.3,6h-1.7l-5.1-5.9l4.9-5.4h1.7L128.7,61.8z"/>
				<path class="st0" d="M134.3,56.5h9.2v1.3h-3.9v10h-1.4v-10h-3.9V56.5z"/>
				<path class="st0" d="M145.4,67.8V56.5c0.6,0,2.2,0,2.9,0c3.2,0,4.2,1.7,4.2,3.5c0,1.8-1.3,3.5-4,3.5c-0.4,0-1.1,0-1.7-0.1v4.3
					H145.4z M146.7,57.8v4.3c0.5,0,1.1,0.1,1.6,0.1c1.7,0,2.6-0.9,2.6-2.3c0-1.3-0.8-2.2-2.6-2.2C148,57.8,147.2,57.8,146.7,57.8z"
					/>
				<path class="st0" d="M159.7,56.4c3.3,0,5.7,2.4,5.7,5.8c0,3.3-2.5,5.8-5.7,5.8c-3.3,0-5.7-2.4-5.7-5.8
					C153.9,58.9,156.3,56.4,159.7,56.4z M159.7,66.6c2.6,0,4.3-2,4.3-4.5c0-2.6-1.9-4.5-4.3-4.5c-2.4,0-4.3,1.9-4.3,4.5
					C155.4,64.7,157.2,66.6,159.7,66.6z"/>
				<path class="st0" d="M175.4,62.7h-6.2v5.1h-1.4V56.5h1.4v4.9h6.2v-4.9h1.4v11.2h-1.4V62.7z"/>
				<path class="st0" d="M187.7,62.7h-6.2v5.1h-1.4V56.5h1.4v4.9h6.2v-4.9h1.4v11.2h-1.4V62.7z"/>
				<path class="st0" d="M197.3,56.4c3.3,0,5.7,2.4,5.7,5.8c0,3.3-2.5,5.8-5.7,5.8s-5.7-2.4-5.7-5.8C191.6,58.9,194,56.4,197.3,56.4
					z M197.3,66.6c2.6,0,4.3-2,4.3-4.5c0-2.6-1.9-4.5-4.3-4.5c-2.4,0-4.3,1.9-4.3,4.5C193,64.7,194.9,66.6,197.3,66.6z"/>
				<path class="st0" d="M205.6,56.5h6.3v1.3h-4.9v10h-1.4V56.5z"/>
				<path class="st0" d="M218.1,56.4c3.3,0,5.7,2.4,5.7,5.8c0,3.3-2.5,5.8-5.7,5.8s-5.7-2.4-5.7-5.8
					C212.3,58.9,214.7,56.4,218.1,56.4z M218.1,66.6c2.6,0,4.3-2,4.3-4.5c0-2.6-1.9-4.5-4.3-4.5c-2.4,0-4.3,1.9-4.3,4.5
					C213.8,64.7,215.7,66.6,218.1,66.6z"/>
				<path class="st0" d="M234.8,56.4c3.3,0,5.7,2.4,5.7,5.8c0,3.3-2.5,5.8-5.7,5.8s-5.7-2.4-5.7-5.8C229,58.9,231.4,56.4,234.8,56.4
					z M234.8,66.6c2.6,0,4.3-2,4.3-4.5c0-2.6-1.9-4.5-4.3-4.5c-2.4,0-4.3,1.9-4.3,4.5C230.5,64.7,232.4,66.6,234.8,66.6z"/>
				<path class="st0" d="M243,56.5h6.4v1.3h-5V61c0.6-0.1,1.3-0.1,1.7-0.1c2.5,0,3.9,1.3,3.9,3.3c0,2.3-1.6,3.6-4.3,3.6
					c-1.1,0-2-0.1-2.7-0.1V56.5z M244.4,62.3v4.2c0.5,0,1,0.1,1.5,0.1c1.8,0,2.7-0.8,2.7-2.2c0-1.3-0.9-2.1-2.6-2.1
					C245.6,62.2,245,62.3,244.4,62.3z"/>
				<path class="st0" d="M257.7,56.4c3.3,0,5.7,2.4,5.7,5.8c0,3.3-2.5,5.8-5.7,5.8s-5.7-2.4-5.7-5.8C252,58.9,254.4,56.4,257.7,56.4
					z M257.7,66.6c2.6,0,4.3-2,4.3-4.5c0-2.6-1.9-4.5-4.3-4.5c-2.4,0-4.3,1.9-4.3,4.5C253.4,64.7,255.3,66.6,257.7,66.6z"/>
				<path class="st0" d="M265.9,67.8V56.5c0.6,0,2.2,0,2.9,0c3.2,0,4.2,1.7,4.2,3.5c0,1.8-1.3,3.5-4,3.5c-0.4,0-1.1,0-1.7-0.1v4.3
					H265.9z M267.3,57.8v4.3c0.5,0,1.1,0.1,1.6,0.1c1.7,0,2.6-0.9,2.6-2.3c0-1.3-0.8-2.2-2.6-2.2C268.5,57.8,267.8,57.8,267.3,57.8z
					"/>
				<path class="st0" d="M279.9,65.2c-0.8,1.7-1.6,2.6-2.8,2.6c-0.5,0-1.1-0.2-1.4-0.4l0.5-1.2c0.3,0.2,0.5,0.3,0.9,0.3
					c0.6,0,1.1-0.5,1.4-1.1l0.2-0.4l-5.1-8.4h1.5l4.2,7l3.1-7h1.4L279.9,65.2z"/>
				<path class="st0" d="M283.2,66.5h1.2c0.5-0.6,1.6-3,1.8-7.7l0.1-2.2h6.6v10h1.5v3.4h-1.3v-2.1h-8.7v2.1h-1.3V66.5z M285.9,66.5
					h5.7v-8.7h-3.9l-0.1,2C287.2,63.7,286.3,66,285.9,66.5z"/>
				<path class="st0" d="M301.4,56.4c3.3,0,5.7,2.4,5.7,5.8c0,3.3-2.5,5.8-5.7,5.8s-5.7-2.4-5.7-5.8C295.6,58.9,298,56.4,301.4,56.4
					z M301.4,66.6c2.6,0,4.3-2,4.3-4.5c0-2.6-1.9-4.5-4.3-4.5c-2.4,0-4.3,1.9-4.3,4.5C297.1,64.7,298.9,66.6,301.4,66.6z"/>
				<path class="st0" d="M309.6,56.5c0.6,0,2-0.1,3.1-0.1c2.7,0,3.6,1.2,3.6,2.8c0,1.4-0.9,2.2-1.9,2.6v0c1.4,0.2,2.3,1.1,2.3,2.7
					c0,2.3-1.7,3.3-4.1,3.3c-1,0-2.4,0-3-0.1V56.5z M311,57.8v3.6h1.8c1.2,0,2.2-0.7,2.2-1.9c0-1.2-0.8-1.8-2.3-1.8
					C312,57.8,311.4,57.8,311,57.8z M311,62.6v3.8c0.4,0,1.1,0.1,1.7,0.1c1.7,0,2.6-0.7,2.6-2.1c0-1.2-0.9-1.8-2.6-1.8H311z"/>
				<path class="st0" d="M322.9,56.5h1.2l4.8,11.3h-1.5l-1.4-3.4h-5.1l-1.4,3.4h-1.4L322.9,56.5z M321.4,63.1h4l-2-4.8L321.4,63.1z"
					/>
				<path class="st0" d="M338.4,62.7h-6.2v5.1h-1.4V56.5h1.4v4.9h6.2v-4.9h1.4v11.2h-1.4V62.7z"/>
				<path class="st0" d="M343.1,67.8V56.5h1.4v9l6.8-9h1.2v11.2h-1.4v-9l-6.8,9H343.1z"/>
				<path class="st0" d="M361.2,63.6h-2.1l-2.9,4.2h-1.5l3.1-4.4c-1.2-0.5-2.2-1.5-2.2-3.1c0-2,1.3-3.7,4.4-3.7c0.8,0,2,0,2.6,0
					v11.2h-1.4V63.6z M361.2,62.3v-4.5c-0.4,0-1,0-1.5,0c-1.7,0-2.7,1-2.7,2.4c0,1.2,1,2,1.9,2.2H361.2z"/>
				<path class="st0" d="M369.5,67.8V56.5h1.4v9l6.8-9h1.2v11.2h-1.4v-9l-6.8,9H369.5z"/>
				<path class="st0" d="M385.9,67.8V56.5c0.6,0,2.2,0,2.9,0c3.2,0,4.2,1.7,4.2,3.5c0,1.8-1.3,3.5-4,3.5c-0.4,0-1.1,0-1.7-0.1v4.3
					H385.9z M387.3,57.8v4.3c0.5,0,1.1,0.1,1.6,0.1c1.7,0,2.6-0.9,2.6-2.3c0-1.3-0.8-2.2-2.6-2.2C388.5,57.8,387.8,57.8,387.3,57.8z
					"/>
				<path class="st0" d="M396.5,61.4h5.6c-0.3-2.3-2-3.7-4.5-3.7c-1,0-2,0.3-2.8,0.9l-0.5-1c0.8-0.7,2.2-1.2,3.7-1.2
					c3.3,0,5.6,2.2,5.6,5.7c0,3.4-2.2,5.8-5.8,5.8c-1.5,0-2.8-0.4-3.7-1.2l0.6-1.1c0.8,0.6,1.9,1,3.1,1c2.4,0,4.2-1.5,4.4-4h-5.6
					V61.4z"/>
				<path class="st0" d="M406,56.5h1.4v11.2H406V56.5z M409.2,61.8l5.3,6h-1.7l-5.1-5.9l4.9-5.4h1.7L409.2,61.8z"/>
			</g>
		</g>
		<g>
			<g>
				<g>
					<path class="st1" d="M0,0h56v42.9H42.8V11.1H13.2v31.8H0V0z"/>
					<path class="st1" d="M81.5,0.1h22.7l21.2,42.8H110l-4.1-7.2H79.8l-4.1,7.2H60.3L81.5,0.1z M93.9,9.8h-2l-7.1,14.9h16.2
						L93.9,9.8z"/>
					<path class="st1" d="M130.4,0h32.2c7,0,11.7,0.9,13.9,2.6c2.8,2.1,4.2,6.7,4.2,13.6c0,6.9-1.4,11.5-4.1,13.6
						c-2.3,1.8-6.9,2.6-14,2.6h-19.1v10.5h-13.2V0z M143.6,21.3h19.1c1.6,0,2.7-0.3,3.5-1c1-0.8,1.4-2.2,1.4-4.1
						c0-1.9-0.5-3.3-1.4-4.1c-0.8-0.7-2-1-3.5-1h-19.1V21.3z"/>
					<path class="st1" d="M187.6,0.1h13.2v29.5c-0.3,1.1-0.6,2.2-1,3.3c0,0.4-0.1,0.8-0.1,1.2c0.3,0,0.5-0.3,0.8-0.8
						c0.3-0.5,0.5-1,0.7-1.6l22.5-31.7h21.6v42.8h-13.2V13.4c0,0,0.3-1.1,1-3.3c0-0.4,0-0.8,0.1-1.2c-0.3,0-0.6,0.3-0.8,0.8
						c-0.3,0.5-0.5,1-0.7,1.5l-22.6,31.7h-21.6V0.1z"/>
					<path class="st1" d="M254.2,11.1V0h51v11.1h-18.9v31.8h-13.2V11.1H254.2z"/>
					<path class="st1" d="M310.1,42.9V0h46.1v10.4h-33v6h31.5v10.3h-31.5v5.9h33v10.4H310.1z"/>
					<path class="st1" d="M363.5,11.1V0h51v11.1h-18.9v31.8h-13.2V11.1H363.5z"/>
				</g>
			</g>
		</g>
	</g>
</g>
</svg>
