<?xml version="1.0" encoding="utf-8"?>
<!-- Generator: Adobe Illustrator 24.0.1, SVG Export Plug-In . SVG Version: 6.00 Build 0)  -->
<svg version="1.1" id="Layer_1" xmlns="http://www.w3.org/2000/svg" xmlns:xlink="http://www.w3.org/1999/xlink" x="0px" y="0px"
	 viewBox="0 0 257 168" style="enable-background:new 0 0 257 168;" xml:space="preserve">
<style type="text/css">
	.st0{fill:#355068;}
</style>
<g>
	<g>
		<g>
			<g>
				<g>
					<g>
						<path class="st0" d="M5.7,161.9H1.9v6.2H1.1v-7h5.5v7H5.7V161.9z"/>
						<path class="st0" d="M11.6,161c2,0,3.5,1.5,3.5,3.6c0,2.1-1.5,3.6-3.5,3.6s-3.6-1.5-3.6-3.6C8.1,162.6,9.6,161,11.6,161z
							 M11.6,167.4c1.6,0,2.7-1.2,2.7-2.8c0-1.6-1.2-2.8-2.7-2.8c-1.5,0-2.7,1.2-2.7,2.8C9,166.2,10.1,167.4,11.6,167.4z"/>
						<path class="st0" d="M21.9,167.4c-0.5,0.5-1.3,0.8-2.2,0.8c-2.1,0-3.5-1.4-3.5-3.6c0-2,1.3-3.6,3.5-3.6c0.9,0,1.6,0.2,2.1,0.7
							l-0.4,0.6c-0.5-0.3-1-0.5-1.7-0.5c-1.5,0-2.6,1.1-2.6,2.8c0,1.7,1.1,2.8,2.7,2.8c0.7,0,1.3-0.2,1.8-0.6L21.9,167.4z"/>
						<path class="st0" d="M22.3,161.1H28v0.8h-2.4v6.2h-0.8v-6.2h-2.4V161.1z"/>
						<path class="st0" d="M30.6,161.1h0.7l3,7h-0.9l-0.9-2.1h-3.2l-0.9,2.1h-0.9L30.6,161.1z M29.7,165.2h2.5l-1.3-3L29.7,165.2z"
							/>
						<path class="st0" d="M35.5,161.1c0.4,0,1.3,0,1.9,0c1.7,0,2.2,0.8,2.2,1.7c0,0.9-0.5,1.4-1.2,1.6v0c0.9,0.1,1.4,0.7,1.4,1.7
							c0,1.4-1.1,2-2.5,2c-0.6,0-1.5,0-1.9,0V161.1z M36.4,161.9v2.2h1.1c0.7,0,1.3-0.4,1.3-1.2c0-0.7-0.5-1.1-1.4-1.1
							C37,161.9,36.6,161.9,36.4,161.9z M36.4,164.9v2.4c0.2,0,0.7,0,1.1,0c1,0,1.6-0.4,1.6-1.3c0-0.7-0.6-1.1-1.6-1.1H36.4z"/>
						<path class="st0" d="M41.7,161.1h0.8v7h-0.8V161.1z M43.6,164.4l3.3,3.7h-1.1l-3.2-3.6l3.1-3.3h1L43.6,164.4z"/>
						<path class="st0" d="M48.2,168.1v-7H49v5.6l4.2-5.6H54v7h-0.8v-5.6l-4.2,5.6H48.2z"/>
						<path class="st0" d="M59.2,164.1h3.4c-0.2-1.5-1.3-2.3-2.8-2.3c-0.6,0-1.2,0.2-1.8,0.6l-0.3-0.6c0.5-0.4,1.3-0.7,2.3-0.7
							c2.1,0,3.5,1.4,3.5,3.6c0,2.1-1.4,3.6-3.6,3.6c-0.9,0-1.8-0.3-2.3-0.7l0.4-0.7c0.5,0.4,1.2,0.6,1.9,0.6c1.5,0,2.6-0.9,2.7-2.5
							h-3.5V164.1z"/>
						<path class="st0" d="M69.1,161.9h-2.5l-0.1,1.3c-0.4,4.4-1.3,5-2.4,4.9l0-0.8c0.5,0,1.3-0.2,1.7-4.7l0.1-1.4h4.2v7h-0.8V161.9
							z"/>
						<path class="st0" d="M72,161.1h3.9v0.8h-3.1v2.2h2.8v0.8h-2.8v2.3H76v0.8h-4V161.1z"/>
						<path class="st0" d="M77.7,161.1h0.8v7h-0.8V161.1z M79.7,164.4l3.3,3.7h-1.1l-3.2-3.6l3.1-3.3h1L79.7,164.4z"/>
						<path class="st0" d="M83.2,161.1h5.7v0.8h-2.4v6.2h-0.8v-6.2h-2.4V161.1z"/>
						<path class="st0" d="M90,168.1v-7c0.4,0,1.4,0,1.8,0c2,0,2.6,1.1,2.6,2.2c0,1.1-0.8,2.2-2.5,2.2c-0.3,0-0.7,0-1,0v2.7H90z
							 M90.9,161.9v2.7c0.3,0,0.7,0,1,0c1,0,1.6-0.5,1.6-1.4c0-0.8-0.5-1.4-1.6-1.4C91.6,161.9,91.2,161.9,90.9,161.9z"/>
						<path class="st0" d="M98.9,161c2,0,3.5,1.5,3.5,3.6c0,2.1-1.5,3.6-3.5,3.6c-2,0-3.6-1.5-3.6-3.6C95.3,162.6,96.8,161,98.9,161
							z M98.9,167.4c1.6,0,2.7-1.2,2.7-2.8c0-1.6-1.2-2.8-2.7-2.8c-1.5,0-2.7,1.2-2.7,2.8C96.2,166.2,97.4,167.4,98.9,167.4z"/>
						<path class="st0" d="M108.7,164.9h-3.8v3.2H104v-7h0.8v3h3.8v-3h0.8v7h-0.8V164.9z"/>
						<path class="st0" d="M116.3,164.9h-3.8v3.2h-0.8v-7h0.8v3h3.8v-3h0.8v7h-0.8V164.9z"/>
						<path class="st0" d="M122.2,161c2,0,3.5,1.5,3.5,3.6c0,2.1-1.5,3.6-3.5,3.6s-3.6-1.5-3.6-3.6C118.7,162.6,120.1,161,122.2,161
							z M122.2,167.4c1.6,0,2.7-1.2,2.7-2.8c0-1.6-1.2-2.8-2.7-2.8c-1.5,0-2.7,1.2-2.7,2.8C119.6,166.2,120.7,167.4,122.2,167.4z"/>
						<path class="st0" d="M127.3,161.1h3.9v0.8h-3v6.2h-0.8V161.1z"/>
						<path class="st0" d="M135.1,161c2,0,3.5,1.5,3.5,3.6c0,2.1-1.5,3.6-3.5,3.6c-2,0-3.6-1.5-3.6-3.6
							C131.5,162.6,133,161,135.1,161z M135.1,167.4c1.6,0,2.7-1.2,2.7-2.8c0-1.6-1.2-2.8-2.7-2.8c-1.5,0-2.7,1.2-2.7,2.8
							C132.4,166.2,133.6,167.4,135.1,167.4z"/>
						<path class="st0" d="M145.4,161c2,0,3.5,1.5,3.5,3.6c0,2.1-1.5,3.6-3.5,3.6c-2,0-3.6-1.5-3.6-3.6
							C141.9,162.6,143.3,161,145.4,161z M145.4,167.4c1.6,0,2.7-1.2,2.7-2.8c0-1.6-1.2-2.8-2.7-2.8c-1.5,0-2.7,1.2-2.7,2.8
							C142.8,166.2,143.9,167.4,145.4,167.4z"/>
						<path class="st0" d="M150.5,161.1h3.9v0.8h-3.1v2c0.3,0,0.8-0.1,1.1-0.1c1.6,0,2.4,0.8,2.4,2c0,1.4-1,2.2-2.7,2.2
							c-0.7,0-1.3,0-1.7,0V161.1z M151.4,164.7v2.6c0.3,0,0.6,0,1,0c1.1,0,1.7-0.5,1.7-1.4c0-0.8-0.5-1.3-1.6-1.3
							C152.1,164.7,151.7,164.7,151.4,164.7z"/>
						<path class="st0" d="M159.6,161c2,0,3.5,1.5,3.5,3.6c0,2.1-1.5,3.6-3.5,3.6c-2,0-3.6-1.5-3.6-3.6
							C156,162.6,157.5,161,159.6,161z M159.6,167.4c1.6,0,2.7-1.2,2.7-2.8c0-1.6-1.2-2.8-2.7-2.8c-1.5,0-2.7,1.2-2.7,2.8
							C156.9,166.2,158.1,167.4,159.6,167.4z"/>
						<path class="st0" d="M164.7,168.1v-7c0.4,0,1.4,0,1.8,0c2,0,2.6,1.1,2.6,2.2c0,1.1-0.8,2.2-2.5,2.2c-0.3,0-0.7,0-1,0v2.7
							H164.7z M165.5,161.9v2.7c0.3,0,0.7,0,1,0c1,0,1.6-0.5,1.6-1.4c0-0.8-0.5-1.4-1.6-1.4C166.3,161.9,165.9,161.9,165.5,161.9z"
							/>
						<path class="st0" d="M173.3,166.5c-0.5,1.1-1,1.6-1.7,1.6c-0.3,0-0.7-0.1-0.8-0.2l0.3-0.7c0.2,0.1,0.3,0.2,0.5,0.2
							c0.4,0,0.7-0.3,0.9-0.7l0.1-0.3l-3.2-5.2h1l2.6,4.4l1.9-4.4h0.9L173.3,166.5z"/>
						<path class="st0" d="M175.4,167.3h0.7c0.3-0.4,1-1.9,1.1-4.8l0.1-1.4h4.1v6.2h0.9v2.1h-0.8v-1.3h-5.4v1.3h-0.8V167.3z
							 M177.1,167.3h3.5v-5.4h-2.4l-0.1,1.2C177.9,165.6,177.3,167,177.1,167.3z"/>
						<path class="st0" d="M186.6,161c2,0,3.5,1.5,3.5,3.6c0,2.1-1.5,3.6-3.5,3.6s-3.6-1.5-3.6-3.6C183.1,162.6,184.6,161,186.6,161
							z M186.6,167.4c1.6,0,2.7-1.2,2.7-2.8c0-1.6-1.2-2.8-2.7-2.8c-1.5,0-2.7,1.2-2.7,2.8C184,166.2,185.1,167.4,186.6,167.4z"/>
						<path class="st0" d="M191.7,161.1c0.4,0,1.3,0,1.9,0c1.7,0,2.2,0.8,2.2,1.7c0,0.9-0.5,1.4-1.2,1.6v0c0.9,0.1,1.4,0.7,1.4,1.7
							c0,1.4-1.1,2-2.5,2c-0.6,0-1.5,0-1.9,0V161.1z M192.6,161.9v2.2h1.1c0.7,0,1.3-0.4,1.3-1.2c0-0.7-0.5-1.1-1.4-1.1
							C193.3,161.9,192.8,161.9,192.6,161.9z M192.6,164.9v2.4c0.2,0,0.7,0,1.1,0c1,0,1.6-0.4,1.6-1.3c0-0.7-0.6-1.1-1.6-1.1H192.6z
							"/>
						<path class="st0" d="M200,161.1h0.7l3,7h-0.9l-0.9-2.1h-3.2l-0.9,2.1H197L200,161.1z M199.1,165.2h2.5l-1.3-3L199.1,165.2z"/>
						<path class="st0" d="M209.6,164.9h-3.8v3.2h-0.8v-7h0.8v3h3.8v-3h0.8v7h-0.8V164.9z"/>
						<path class="st0" d="M212.5,168.1v-7h0.8v5.6l4.2-5.6h0.7v7h-0.8v-5.6l-4.2,5.6H212.5z"/>
						<path class="st0" d="M223.7,165.5h-1.3l-1.8,2.6h-1l1.9-2.7c-0.7-0.3-1.4-1-1.4-1.9c0-1.3,0.8-2.3,2.7-2.3c0.5,0,1.2,0,1.6,0
							v7h-0.8V165.5z M223.7,164.7v-2.8c-0.2,0-0.6,0-0.9,0c-1.1,0-1.7,0.6-1.7,1.5c0,0.7,0.6,1.3,1.2,1.4H223.7z"/>
						<path class="st0" d="M228.9,168.1v-7h0.8v5.6l4.2-5.6h0.7v7h-0.8v-5.6l-4.2,5.6H228.9z"/>
						<path class="st0" d="M239,168.1v-7c0.4,0,1.4,0,1.8,0c2,0,2.6,1.1,2.6,2.2c0,1.1-0.8,2.2-2.5,2.2c-0.3,0-0.7,0-1,0v2.7H239z
							 M239.9,161.9v2.7c0.3,0,0.7,0,1,0c1,0,1.6-0.5,1.6-1.4c0-0.8-0.5-1.4-1.6-1.4C240.6,161.9,240.2,161.9,239.9,161.9z"/>
						<path class="st0" d="M245.6,164.1h3.4c-0.2-1.5-1.3-2.3-2.8-2.3c-0.6,0-1.2,0.2-1.8,0.6l-0.3-0.6c0.5-0.4,1.3-0.7,2.3-0.7
							c2.1,0,3.5,1.4,3.5,3.6c0,2.1-1.4,3.6-3.6,3.6c-0.9,0-1.8-0.3-2.3-0.7l0.4-0.7c0.5,0.4,1.2,0.6,1.9,0.6c1.5,0,2.6-0.9,2.7-2.5
							h-3.5V164.1z"/>
						<path class="st0" d="M251.5,161.1h0.8v7h-0.8V161.1z M253.4,164.4l3.3,3.7h-1.1l-3.2-3.6l3.1-3.3h1L253.4,164.4z"/>
					</g>
				</g>
				<g>
					<g>
						<g>
							<path class="st0" d="M0,126.1h34.7v26.6h-8.2V133H8.2v19.7H0V126.1z"/>
							<path class="st0" d="M50.5,126.2h14l13.1,26.5h-9.5l-2.5-4.5H49.4l-2.5,4.5h-9.5L50.5,126.2z M58.1,132.2h-1.3l-4.4,9.2h10.1
								L58.1,132.2z"/>
							<path class="st0" d="M80.8,126.1h20c4.4,0,7.2,0.5,8.6,1.6c1.7,1.3,2.6,4.1,2.6,8.4c0,4.3-0.9,7.1-2.6,8.4
								c-1.4,1.1-4.3,1.6-8.6,1.6H88.9v6.5h-8.2V126.1z M88.9,139.3h11.8c1,0,1.7-0.2,2.2-0.6c0.6-0.5,0.9-1.3,0.9-2.5
								c0-1.2-0.3-2-0.9-2.5c-0.5-0.4-1.2-0.6-2.2-0.6H88.9V139.3z"/>
							<path class="st0" d="M116.2,126.2h8.2v18.3c-0.2,0.7-0.4,1.4-0.6,2c0,0.2,0,0.5,0,0.7c0.2,0,0.3-0.2,0.5-0.5
								c0.2-0.3,0.3-0.6,0.5-1l14-19.6H152v26.5h-8.2v-18.3c0,0,0.2-0.7,0.6-2c0-0.2,0-0.5,0-0.7c-0.2,0-0.3,0.2-0.5,0.5
								c-0.2,0.3-0.3,0.7-0.5,0.9l-14,19.6h-13.4V126.2z"/>
							<path class="st0" d="M157.5,133v-6.9H189v6.9h-11.7v19.7h-8.2V133H157.5z"/>
							<path class="st0" d="M192.1,152.7v-26.6h28.6v6.4h-20.4v3.7h19.5v6.4h-19.5v3.6h20.4v6.4H192.1z"/>
							<path class="st0" d="M225.1,133v-6.9h31.6v6.9H245v19.7h-8.2V133H225.1z"/>
						</g>
					</g>
				</g>
			</g>
		</g>
		<g>
			<g>
				<path class="st0" d="M151.6,48.4l0-18.1c0-0.5-0.4-1-1-1l-13.6,0c-0.7-1.4-2.2-2.4-3.9-2.4c-2.4,0-4.4,2-4.4,4.4
					c0,2.4,2,4.4,4.4,4.4c1.8,0,3.3-1.1,4-2.6l10.7,0l0,15.3c-1.4,0.7-2.4,2.2-2.4,3.9c0,2.4,2,4.4,4.4,4.4c2.4,0,4.4-2,4.4-4.4
					C154.1,50.6,153.1,49.1,151.6,48.4z M133.1,33.5c-1.2,0-2.1-1-2.1-2.1c0-1.2,1-2.1,2.1-2.1c1.2,0,2.1,1,2.1,2.1
					C135.2,32.5,134.3,33.5,133.1,33.5z M149.7,54.5c-1.2,0-2.1-1-2.1-2.1c0-1.2,1-2.1,2.1-2.1c1.2,0,2.1,1,2.1,2.1
					C151.9,53.6,150.9,54.5,149.7,54.5z"/>
				<path class="st0" d="M109.9,67.5c0-2.4-2-4.4-4.4-4.4c-2.4,0-4.4,2-4.4,4.4c0,1.7,1,3.2,2.5,3.9v3.4c-1.5,0.7-2.5,2.2-2.5,3.9
					c0,2.4,2,4.4,4.4,4.4c2.4,0,4.4-2,4.4-4.4c0-1.7-1-3.2-2.5-3.9v-3.4C108.9,70.8,109.9,69.3,109.9,67.5z M105.5,65.4
					c1.2,0,2.1,1,2.1,2.1c0,1.2-1,2.1-2.1,2.1c-1.2,0-2.1-1-2.1-2.1C103.4,66.4,104.4,65.4,105.5,65.4z M103.4,78.8
					c0-1.2,1-2.1,2.1-2.1c1.2,0,2.1,1,2.1,2.1c0,1.2-1,2.1-2.1,2.1C104.4,81,103.4,80,103.4,78.8z"/>
				<path class="st0" d="M145.3,78.8c0,2.4,2,4.4,4.4,4.4c2.4,0,4.4-2,4.4-4.4c0-1.7-1-3.2-2.5-4V61.5c0-0.3-0.2-0.6-0.4-0.8
					l-7.7-5.1v-17c0-0.5-0.4-1-1-1h-29.9c-0.5,0-1,0.4-1,1v12.1c-1.6,0.7-2.6,2.2-2.6,4c0,2.4,2,4.4,4.4,4.4c2.4,0,4.4-2,4.4-4.4
					c0-1.7-0.9-3.1-2.3-3.9v-9.4h24.2v15.4c0,0.3,0.2,0.6,0.4,0.8l7.7,5.1v12.2C146.3,75.6,145.3,77.1,145.3,78.8z M111.3,54.6
					c0-1.2,1-2.1,2.1-2.1c1.2,0,2.1,1,2.1,2.1c0,1.2-1,2.1-2.1,2.1C112.2,56.7,111.3,55.8,111.3,54.6z M149.7,81
					c-1.2,0-2.1-1-2.1-2.1c0-1.2,1-2.1,2.1-2.1c1.2,0,2.1,1,2.1,2.1C151.9,80,150.9,81,149.7,81z"/>
				<path class="st0" d="M95.6,81.1h3.7h0.1V25.3h16.6c0.7,1.4,2.2,2.3,3.9,2.3c2.4,0,4.4-2,4.4-4.4c0-2.4-2-4.4-4.4-4.4
					c-1.8,0-3.3,1.1-4,2.6H96.6c-0.5,0-1,0.4-1,1v54.8h-10c-3.8-6.9-6-14.9-6-23.3c0-26.8,21.8-48.7,48.7-48.7
					c10.8,0,20.7,3.5,28.8,9.5h8.2C155.7,5.6,142.6,0,128.4,0C98.6,0,74.4,24.2,74.4,53.9c0,9.9,2.7,19.2,7.3,27.1H82h6H95.6z
					 M119.9,21.1c1.2,0,2.1,1,2.1,2.1c0,1.2-1,2.1-2.1,2.1c-1.2,0-2.1-1-2.1-2.1C117.8,22,118.8,21.1,119.9,21.1z"/>
				<path class="st0" d="M176.1,28.9h-0.7h-5.3h-10.5h-3.2h-0.6v55.8h-12.2V69.3c1.5-0.7,2.6-2.2,2.6-4c0-2.4-2-4.4-4.4-4.4
					c-2.4,0-4.4,2-4.4,4.4c0,1.7,1,3.2,2.4,3.9v18.3c0,0.5,0.4,1,1,1h17.9c0.5,0,1-0.4,1-1V32.7h12.6c3.1,6.4,4.9,13.6,4.9,21.2
					c0,26.8-21.8,48.7-48.7,48.7c-9.5,0-18.4-2.7-25.9-7.5h-8.9c9.4,7.9,21.5,12.7,34.7,12.7c29.7,0,53.9-24.2,53.9-53.9
					C182.3,44.9,180,36.4,176.1,28.9z M141.7,63.1c1.2,0,2.1,1,2.1,2.1c0,1.2-1,2.1-2.1,2.1c-1.2,0-2.1-1-2.1-2.1
					C139.6,64.1,140.5,63.1,141.7,63.1z"/>
				<path class="st0" d="M115.5,87.5V64c0-0.3-0.2-0.6-0.4-0.8l-7.7-5.2V33h16.8c0.3,0,0.6-0.2,0.8-0.4l4.8-7.3h37.9h2.5h3.9
					c-0.8-1.3-1.7-2.6-2.7-3.8h-6.8c0,0,0,0,0,0h-36c-0.3,0-0.6,0.2-0.8,0.4l-4.8,7.3h-18.4c-0.5,0-1,0.4-1,1v29.1
					c0,0.3,0.2,0.6,0.4,0.8l7.7,5.2v19.5l-25.1,0v0h-2.6c0.9,1.3,1.9,2.6,2.9,3.8h0.4c0.1,0,0.2,0,0.3,0h26.9
					C115.1,88.5,115.5,88,115.5,87.5z"/>
			</g>
		</g>
	</g>
</g>
</svg>
