<?xml version="1.0" encoding="utf-8"?>
<!-- Generator: Adobe Illustrator 24.0.1, SVG Export Plug-In . SVG Version: 6.00 Build 0)  -->
<svg version="1.1" id="Layer_1" xmlns="http://www.w3.org/2000/svg" xmlns:xlink="http://www.w3.org/1999/xlink" x="0px" y="0px"
	 viewBox="0 0 107.9 107.8" style="enable-background:new 0 0 107.9 107.8;" xml:space="preserve">
<style type="text/css">
	.st0{fill:#355068;}
</style>
<g>
	<g>
		<g>
			<g>
				<path class="st0" d="M77.2,48.4V30.3c0-0.5-0.4-1-1-1H62.6c-0.7-1.4-2.2-2.4-3.9-2.4c-2.4,0-4.4,2-4.4,4.4s2,4.4,4.4,4.4
					c1.8,0,3.3-1.1,4-2.6h10.7v15.3C72,49.1,71,50.6,71,52.3c0,2.4,2,4.4,4.4,4.4s4.4-2,4.4-4.4C79.7,50.6,78.7,49.1,77.2,48.4z
					 M58.7,33.5c-1.2,0-2.1-1-2.1-2.1c0-1.2,1-2.1,2.1-2.1c1.2,0,2.1,1,2.1,2.1C60.8,32.5,59.9,33.5,58.7,33.5z M75.3,54.5
					c-1.2,0-2.1-1-2.1-2.1c0-1.2,1-2.1,2.1-2.1c1.2,0,2.1,1,2.1,2.1C77.5,53.6,76.5,54.5,75.3,54.5z"/>
				<path class="st0" d="M35.5,67.5c0-2.4-2-4.4-4.4-4.4s-4.4,2-4.4,4.4c0,1.7,1,3.2,2.5,3.9v3.4c-1.5,0.7-2.5,2.2-2.5,3.9
					c0,2.4,2,4.4,4.4,4.4s4.4-2,4.4-4.4c0-1.7-1-3.2-2.5-3.9v-3.4C34.5,70.8,35.5,69.3,35.5,67.5z M31.1,65.4c1.2,0,2.1,1,2.1,2.1
					c0,1.2-1,2.1-2.1,2.1c-1.2,0-2.1-1-2.1-2.1S30,65.4,31.1,65.4z M29,78.8c0-1.2,1-2.1,2.1-2.1c1.2,0,2.1,1,2.1,2.1
					c0,1.2-1,2.1-2.1,2.1C30,81,29,80,29,78.8z"/>
				<path class="st0" d="M70.9,78.8c0,2.4,2,4.4,4.4,4.4s4.4-2,4.4-4.4c0-1.7-1-3.2-2.5-4V61.5c0-0.3-0.2-0.6-0.4-0.8l-7.7-5.1v-17
					c0-0.5-0.4-1-1-1H38.2c-0.5,0-1,0.4-1,1v12.1c-1.6,0.7-2.6,2.2-2.6,4c0,2.4,2,4.4,4.4,4.4s4.4-2,4.4-4.4c0-1.7-0.9-3.1-2.3-3.9
					v-9.4h24.2v15.4c0,0.3,0.2,0.6,0.4,0.8l7.7,5.1v12.2C71.9,75.6,70.9,77.1,70.9,78.8z M36.9,54.6c0-1.2,1-2.1,2.1-2.1
					c1.2,0,2.1,1,2.1,2.1c0,1.2-1,2.1-2.1,2.1C37.8,56.7,36.9,55.8,36.9,54.6z M75.3,81c-1.2,0-2.1-1-2.1-2.1c0-1.2,1-2.1,2.1-2.1
					c1.2,0,2.1,1,2.1,2.1C77.5,80,76.5,81,75.3,81z"/>
				<path class="st0" d="M21.2,81.1h3.7H25V25.3h16.6c0.7,1.4,2.2,2.3,3.9,2.3c2.4,0,4.4-2,4.4-4.4s-2-4.4-4.4-4.4
					c-1.8,0-3.3,1.1-4,2.6H22.2c-0.5,0-1,0.4-1,1v54.8h-10c-3.8-6.9-6-14.9-6-23.3C5.2,27.1,27,5.2,53.9,5.2
					c10.8,0,20.7,3.5,28.8,9.5h8.2C81.3,5.6,68.2,0,54,0C24.2,0,0,24.2,0,53.9C0,63.8,2.7,73.1,7.3,81h0.3h6L21.2,81.1L21.2,81.1z
					 M45.5,21.1c1.2,0,2.1,1,2.1,2.1c0,1.2-1,2.1-2.1,2.1c-1.2,0-2.1-1-2.1-2.1C43.4,22,44.4,21.1,45.5,21.1z"/>
				<path class="st0" d="M101.7,28.9H101h-5.3H85.2H82h-0.6v55.8H69.2V69.3c1.5-0.7,2.6-2.2,2.6-4c0-2.4-2-4.4-4.4-4.4
					s-4.4,2-4.4,4.4c0,1.7,1,3.2,2.4,3.9v18.3c0,0.5,0.4,1,1,1h17.9c0.5,0,1-0.4,1-1V32.7h12.6c3.1,6.4,4.9,13.6,4.9,21.2
					c0,26.8-21.8,48.7-48.7,48.7c-9.5,0-18.4-2.7-25.9-7.5h-8.9c9.4,7.9,21.5,12.7,34.7,12.7c29.7,0,53.9-24.2,53.9-53.9
					C107.9,44.9,105.6,36.4,101.7,28.9z M67.3,63.1c1.2,0,2.1,1,2.1,2.1c0,1.2-1,2.1-2.1,2.1c-1.2,0-2.1-1-2.1-2.1
					C65.2,64.1,66.1,63.1,67.3,63.1z"/>
				<path class="st0" d="M41.1,87.5V64c0-0.3-0.2-0.6-0.4-0.8L33,58V33h16.8c0.3,0,0.6-0.2,0.8-0.4l4.8-7.3h37.9h2.5h3.9
					C98.9,24,98,22.7,97,21.5h-6.8l0,0h-36c-0.3,0-0.6,0.2-0.8,0.4l-4.8,7.3H30.2c-0.5,0-1,0.4-1,1v29.1c0,0.3,0.2,0.6,0.4,0.8
					l7.7,5.2v19.5H12.2l0,0H9.6c0.9,1.3,1.9,2.6,2.9,3.8h0.4c0.1,0,0.2,0,0.3,0h26.9C40.7,88.5,41.1,88,41.1,87.5z"/>
			</g>
		</g>
	</g>
</g>
</svg>
