<?xml version="1.0" encoding="utf-8"?>
<!-- Generator: Adobe Illustrator 24.0.1, SVG Export Plug-In . SVG Version: 6.00 Build 0)  -->
<svg version="1.1" id="Layer_2" xmlns="http://www.w3.org/2000/svg" xmlns:xlink="http://www.w3.org/1999/xlink" x="0px" y="0px"
	 viewBox="0 0 512 512" style="enable-background:new 0 0 512 512;" xml:space="preserve">
<style type="text/css">
	.st0{fill:#FDFEFF;}
</style>
<g>
	<path class="st0" d="M366.3,229.9v-86c0-2.4-1.9-4.7-4.7-4.7H297c-3.3-6.6-10.4-11.4-18.5-11.4c-11.4,0-20.9,9.5-20.9,20.9
		s9.5,20.9,20.9,20.9c8.5,0,15.7-5.2,19-12.3h50.8v72.7c-6.6,3.3-11.4,10.4-11.4,18.5c0,11.4,9.5,20.9,20.9,20.9
		c11.4,0,20.9-9.5,20.9-20.9C378.2,240.3,373.4,233.2,366.3,229.9z M278.5,159.1c-5.7,0-10-4.7-10-10c0-5.7,4.7-10,10-10
		c5.7,0,10,4.7,10,10C288.5,154.4,284.2,159.1,278.5,159.1z M357.3,258.8c-5.7,0-10-4.7-10-10c0-5.7,4.7-10,10-10
		c5.7,0,10,4.7,10,10C367.7,254.6,363,258.8,357.3,258.8z"/>
	<path class="st0" d="M168.5,320.6c0-11.4-9.5-20.9-20.9-20.9c-11.4,0-20.9,9.5-20.9,20.9c0,8.1,4.7,15.2,11.9,18.5v16.1
		c-7.1,3.3-11.9,10.4-11.9,18.5c0,11.4,9.5,20.9,20.9,20.9c11.4,0,20.9-9.5,20.9-20.9c0-8.1-4.7-15.2-11.9-18.5v-16.1
		C163.7,336.3,168.5,329.1,168.5,320.6z M147.6,310.6c5.7,0,10,4.7,10,10c0,5.7-4.7,10-10,10c-5.7,0-10-4.7-10-10
		S142.4,310.6,147.6,310.6z M137.6,374.3c0-5.7,4.7-10,10-10c5.7,0,10,4.7,10,10c0,5.7-4.7,10-10,10
		C142.4,384.7,137.6,380,137.6,374.3z"/>
	<path class="st0" d="M336.4,374.3c0,11.4,9.5,20.9,20.9,20.9c11.4,0,20.9-9.5,20.9-20.9c0-8.1-4.7-15.2-11.9-19v-63.2
		c0-1.4-0.9-2.8-1.9-3.8l-36.5-24.2v-80.7c0-2.4-1.9-4.7-4.7-4.7H181.3c-2.4,0-4.7,1.9-4.7,4.7v57.5c-7.6,3.3-12.3,10.4-12.3,19
		c0,11.4,9.5,20.9,20.9,20.9c11.4,0,20.9-9.5,20.9-20.9c0-8.1-4.3-14.7-10.9-18.5v-44.6h114.8v73.1c0,1.4,0.9,2.8,1.9,3.8l36.5,24.2
		v57.9C341.2,359.1,336.4,366.2,336.4,374.3z M175.1,259.3c0-5.7,4.7-10,10-10c5.7,0,10,4.7,10,10c0,5.7-4.7,10-10,10
		C179.4,269.3,175.1,265,175.1,259.3z M357.3,384.7c-5.7,0-10-4.7-10-10c0-5.7,4.7-10,10-10c5.7,0,10,4.7,10,10
		C367.7,380,363,384.7,357.3,384.7z"/>
	<path class="st0" d="M100.6,385.2h17.6h0.5v-265h78.8c3.3,6.6,10.4,10.9,18.5,10.9c11.4,0,20.9-9.5,20.9-20.9s-9.5-20.9-20.9-20.9
		c-8.5,0-15.7,5.2-19,12.3h-91.6c-2.4,0-4.7,1.9-4.7,4.7v260.3H53.1c-18-32.8-28.5-70.8-28.5-110.7c0-127.3,103.4-231.3,231.1-231.3
		c51.2,0,98.2,16.6,136.7,45.1h38.9C385.8,26.6,323.6,0,256.2,0C114.8,0,0,114.9,0,256c0,47,12.8,91.2,34.6,128.7h1.4h28.5
		L100.6,385.2L100.6,385.2z M215.9,100.2c5.7,0,10,4.7,10,10c0,5.7-4.7,10-10,10c-5.7,0-10-4.7-10-10
		C205.9,104.5,210.7,100.2,215.9,100.2z"/>
	<path class="st0" d="M482.6,137.3h-3.3h-25.1h-49.8h-15.2h-2.8v265h-57.9v-73.1c7.1-3.3,12.3-10.4,12.3-19
		c0-11.4-9.5-20.9-20.9-20.9c-11.4,0-20.9,9.5-20.9,20.9c0,8.1,4.7,15.2,11.4,18.5v86.9c0,2.4,1.9,4.7,4.7,4.7H400
		c2.4,0,4.7-1.9,4.7-4.7V155.3h59.8c14.7,30.4,23.3,64.6,23.3,100.7c0,127.3-103.4,231.3-231.1,231.3c-45.1,0-87.3-12.8-122.9-35.6
		H91.6c44.6,37.5,102,60.3,164.7,60.3C397.2,512,512,397.1,512,256C512,213.3,501.1,172.9,482.6,137.3z M319.3,299.7
		c5.7,0,10,4.7,10,10c0,5.7-4.7,10-10,10c-5.7,0-10-4.7-10-10C309.4,304.4,313.7,299.7,319.3,299.7z"/>
	<path class="st0" d="M195,415.6V304c0-1.4-0.9-2.8-1.9-3.8l-36.5-24.7V156.7h79.7c1.4,0,2.8-0.9,3.8-1.9l22.8-34.7h179.8h11.9h18.5
		c-3.8-6.2-8.1-12.3-12.8-18H428l0,0H257.2c-1.4,0-2.8,0.9-3.8,1.9l-22.8,34.7h-87.3c-2.4,0-4.7,1.9-4.7,4.7v138.2
		c0,1.4,0.9,2.8,1.9,3.8l36.5,24.7v92.6H57.9l0,0H45.6c4.3,6.2,9,12.3,13.8,18h1.9c0.5,0,0.9,0,1.4,0h127.6
		C193.1,420.3,195,418,195,415.6z"/>
</g>
</svg>
