<?xml version="1.0" encoding="utf-8"?>
<!-- Generator: Adobe Illustrator 24.0.1, SVG Export Plug-In . SVG Version: 6.00 Build 0)  -->
<svg version="1.1" id="Layer_1" xmlns="http://www.w3.org/2000/svg" xmlns:xlink="http://www.w3.org/1999/xlink" x="0px" y="0px"
	 viewBox="0 0 166 166" style="enable-background:new 0 0 166 166;" xml:space="preserve">
<style type="text/css">
	.st0{fill:#FFFFFF;}
</style>
<g id="logo_1_">
	<g id="logo">
		<path class="st0" d="M118.5,74.7V46.9c0-0.8-0.7-1.5-1.5-1.5l-20.8-0.1c-1.1-2.2-3.4-3.7-6-3.7c-3.7,0-6.7,3-6.7,6.8
			c0,3.7,3,6.8,6.7,6.8c2.7,0,5-1.6,6.1-4l16.4,0.1v23.5c-2.2,1.1-3.7,3.4-3.7,6c0,3.7,3,6.8,6.7,6.8s6.7-3,6.7-6.8
			C122.4,78.1,120.8,75.8,118.5,74.7z M90.3,51.7c-1.8,0-3.3-1.5-3.3-3.3s1.5-3.3,3.3-3.3s3.3,1.5,3.3,3.3
			C93.5,50.2,92.1,51.7,90.3,51.7z M115.7,84.1c-1.8,0-3.3-1.5-3.3-3.3s1.5-3.3,3.3-3.3s3.3,1.5,3.3,3.3S117.5,84.1,115.7,84.1z"/>
		<path class="st0" d="M54.9,104.2c0-3.7-3-6.8-6.7-6.8s-6.7,3-6.7,6.8c0,2.7,1.6,5,3.8,6.1v5.2c-2.2,1.1-3.8,3.4-3.8,6.1
			c0,3.7,3,6.8,6.7,6.8s6.7-3,6.7-6.8c0-2.7-1.6-5-3.8-6.1v-5.2C53.3,109.2,54.9,106.9,54.9,104.2z M48.2,100.9
			c1.8,0,3.3,1.5,3.3,3.3s-1.5,3.3-3.3,3.3s-3.3-1.5-3.3-3.3S46.4,100.9,48.2,100.9z M44.9,121.6c0-1.8,1.5-3.3,3.3-3.3
			s3.3,1.5,3.3,3.3s-1.5,3.3-3.3,3.3C46.4,124.9,44.9,123.4,44.9,121.6z"/>
		<path class="st0" d="M109,121.6c0,3.7,3,6.8,6.7,6.8s6.7-3,6.7-6.8c0-2.7-1.6-5-3.8-6.1V94.8c0-0.5-0.2-1-0.7-1.2l-11.7-7.9V59.5
			c0-0.8-0.7-1.5-1.5-1.5H59.1c-0.8,0-1.5,0.7-1.5,1.5V78c-2.4,1-4,3.4-4,6.2c0,3.7,3,6.8,6.7,6.8s6.7-3,6.7-6.8
			c0-2.6-1.4-4.8-3.5-6V63.7h37v23.7c0,0.5,0.2,1,0.7,1.2l11.7,7.9v18.9C110.5,116.6,109,118.9,109,121.6z M57,84.2
			c0-1.8,1.5-3.3,3.3-3.3s3.3,1.5,3.3,3.3s-1.5,3.3-3.3,3.3C58.4,87.5,57,86.1,57,84.2z M115.7,124.9c-1.8,0-3.3-1.5-3.3-3.3
			s1.5-3.3,3.3-3.3s3.3,1.5,3.3,3.3C118.9,123.4,117.5,124.9,115.7,124.9z"/>
		<path class="st0" d="M33,125h5.7h0.1V39.1h25.5c1.1,2.1,3.4,3.6,5.9,3.6c3.7,0,6.7-3,6.7-6.8c0-3.7-3-6.8-6.7-6.8
			c-2.7,0-5.1,1.7-6.1,4H34.6c-0.8,0-1.5,0.7-1.5,1.5v84.3H17.8C12,108.2,8.7,96,8.7,83c0-41.3,33.4-75,74.4-75
			c16.4,0,31.7,5.4,44,14.6h12.5C124.8,8.6,105,0,83.1,0C37.7,0,0.7,37.2,0.7,83c0,15.2,4.1,29.5,11.2,41.8h0.3h9.2H33L33,125
			L33,125z M70.2,32.6c1.8,0,3.3,1.5,3.3,3.3s-1.5,3.3-3.3,3.3s-3.3-1.5-3.3-3.3S68.4,32.6,70.2,32.6z"/>
		<path class="st0" d="M156,44.6h-1.1h-8.1h-16h-4.9H125v85.9h-18.7v-23.7c2.3-1.1,4-3.4,4-6.2c0-3.7-3-6.8-6.7-6.8s-6.7,3-6.7,6.8
			c0,2.6,1.5,4.9,3.6,6v28.2c0,0.8,0.7,1.5,1.5,1.5h27.4c0.8,0,1.5-0.7,1.5-1.5V50.5h19.2c4.8,9.9,7.5,21,7.5,32.7
			c0,41.3-33.4,75-74.4,75c-14.5,0-28.1-4.2-39.5-11.5H30.2c14.3,12.2,32.9,19.6,53.1,19.6c45.4,0,82.4-37.2,82.4-83
			C165.4,69.3,162,56.2,156,44.6z M103.4,97.4c1.8,0,3.3,1.5,3.3,3.3s-1.5,3.3-3.3,3.3s-3.3-1.5-3.3-3.3
			C100.2,98.9,101.6,97.4,103.4,97.4z"/>
		<path class="st0" d="M63.4,134.9V98.8c0-0.5-0.2-1-0.7-1.2l-11.8-8V50.9h25.7c0.5,0,1-0.3,1.2-0.7L85.2,39h57.9h3.8h5.9
			c-1.3-2-2.6-4-4.1-5.9h-10.4c0,0,0,0,0.1,0.1h-55c-0.5,0-1,0.3-1.2,0.7l-7.4,11.2H46.6c-0.8,0-1.5,0.7-1.5,1.5v44.7
			c0,0.5,0.2,1,0.7,1.2l11.8,8v30H19.3l0,0h-3.9c1.4,2,2.8,3.9,4.4,5.8h0.6c0.1,0,0.3,0.1,0.4,0.1h41.1
			C62.7,136.4,63.4,135.7,63.4,134.9z"/>
	</g>
</g>
</svg>
